<?xml version="1.0" ?><svg data-name="Layer 1" id="Layer_1" viewBox="0 0 150 150" xmlns="http://www.w3.org/2000/svg"><defs><style>.cls-1{fill:#13818d;}.cls-2{fill:#44c2c7;}.cls-3{fill:#fff;}</style></defs><title/><circle class="cls-1" cx="75" cy="75" r="65"/><ellipse class="cls-2" cx="75" cy="103.62" rx="17.94" ry="6.39"/><path class="cls-3" d="M75,40A21.42,21.42,0,0,0,55.36,70s0,0.06,0,.09C58.83,78.56,75,100.68,75,100.68S90.55,80.2,94.62,70a0.9,0.9,0,0,1,0-.1A21.42,21.42,0,0,0,75,40Zm0,33.92a13.5,13.5,0,1,1,13.5-13.5A13.5,13.5,0,0,1,75,73.91Z"/></svg>